# xmcd
#
# Track frame offsets:
#	150
#	19535
#	40830
#	57650
#	78750
#	102507
#
# Disc length: 1569 seconds
#
# Revision: 0
# Processed by: cddbd v1.4PL0 Copyright (c) Steve Scherf et al.
# Submitted via: dBpowerAMP V4.0
#
DISCID=42061f06
DTITLE=Rectifiers, The - Six Song EP
DYEAR=1998
DGENRE=Country
TTITLE0=Tourmaline
TTITLE1=Trouble on the Nth Wind
TTITLE2=Torn Along The Line
TTITLE3=To The Heart
TTITLE4=New Horizons
TTITLE5=Long Time
EXTD=
EXTT0=
EXTT1=
EXTT2=
EXTT3=
EXTT4=
EXTT5=
PLAYORDER=
